<svg xmlns="http://www.w3.org/2000/svg" viewBox="0 0 460 460"><path d="M222.929,195.147c1.953,1.952,4.512,2.929,7.071,2.929s5.119-0.977,7.071-2.929l90.731-90.731 c2.103-2.103,3.16-5.032,2.886-7.993c-0.274-2.961-1.852-5.646-4.305-7.327C297.931,69.597,264.602,59.29,230,59.29 s-67.931,10.307-96.384,29.806c-2.453,1.681-4.03,4.366-4.305,7.327c-0.274,2.961,0.784,5.891,2.886,7.993L222.929,195.147z M230,79.29c26.469,0,52.092,6.829,74.797,19.847L230,173.934l-74.797-74.797C177.908,86.119,203.531,79.29,230,79.29z"/><path d="M392.634,67.365C349.193,23.924,291.435,0,230,0S110.807,23.924,67.366,67.365C23.924,110.807,0,168.564,0,230 s23.924,119.193,67.366,162.635C110.807,436.076,168.565,460,230,460s119.193-23.924,162.634-67.365 C436.076,349.193,460,291.436,460,230S436.076,110.807,392.634,67.365z M230,440c-115.794,0-210-94.206-210-210S114.206,20,230,20 s210,94.206,210,210S345.794,440,230,440z"/><path d="M237.071 264.853c-3.905-3.904-10.237-3.904-14.143 0l-90.731 90.731c-2.103 2.103-3.16 5.032-2.886 7.993.274 2.961 1.852 5.646 4.305 7.327 28.453 19.499 61.783 29.806 96.384 29.806s67.931-10.307 96.384-29.806c2.453-1.681 4.03-4.366 4.305-7.327.274-2.961-.784-5.891-2.886-7.993L237.071 264.853zM230 380.71c-26.469 0-52.092-6.829-74.797-19.847L230 286.066l74.797 74.797C282.092 373.881 256.469 380.71 230 380.71zM195.147 222.929l-90.731-90.731c-2.103-2.103-5.031-3.166-7.993-2.886-2.961.273-5.646 1.852-7.327 4.305C69.596 162.07 59.29 195.398 59.29 230s10.307 67.93 29.806 96.384c1.681 2.453 4.366 4.031 7.327 4.305.308.029.616.043.922.043 2.639 0 5.187-1.045 7.071-2.929l90.731-90.731C199.052 233.166 199.052 226.834 195.147 222.929zM99.136 304.797C86.119 282.092 79.29 256.469 79.29 230s6.83-52.092 19.847-74.797L173.934 230 99.136 304.797zM370.905 133.616c-1.681-2.453-4.366-4.031-7.327-4.305-2.967-.28-5.891.783-7.993 2.886l-90.731 90.731c-3.905 3.905-3.905 10.237 0 14.143l90.731 90.731c1.884 1.884 4.431 2.929 7.071 2.929.306 0 .614-.014.922-.043 2.961-.273 5.646-1.852 7.327-4.305C390.404 297.93 400.71 264.602 400.71 230S390.404 162.07 370.905 133.616zM360.864 304.797L286.066 230l74.797-74.797c13.017 22.705 19.847 48.328 19.847 74.797S373.881 282.092 360.864 304.797z"/></svg>